<?xml version="1.0" encoding="utf-8"?>
<!-- Generator: Adobe Illustrator 23.1.1, SVG Export Plug-In . SVG Version: 6.00 Build 0)  -->
<svg version="1.1" id="Layer_1" xmlns="http://www.w3.org/2000/svg" xmlns:xlink="http://www.w3.org/1999/xlink" x="0px" y="0px"
	 viewBox="0 0 317.8 184.5" enable-background="new 0 0 317.8 184.5" xml:space="preserve">
<title>MAKAIRA-Logo-L-Regular</title>
<path fill="#64B4C7" d="M93.2,71.7c11-24.6,30.6-42.1,52.3-49.4c5.7-4.5,11.9-8.3,18.5-11.4C133.2-6.2,95.7-3.4,71.6,20.4
	c-29.8,29.5-27.6,80.2,5,113.2c4.8,4.8,10,9.1,15.7,12.7C82.2,124.9,81.7,97.4,93.2,71.7z"/>
<path fill="#FFF9ED" d="M130.7,139.3c8.5,8.6,19.3,14.6,31,17.6c10.6-3.3,20.3-9.1,28.2-16.9c29.9-29.5,27.6-80.2-5-113.2
	c-2.7-2.8-5.7-5.3-8.7-7.7c-10.3-1.2-20.8,0-30.6,3.3c-2.8,2.2-5.4,4.5-7.9,7C105.3,61.4,102.2,110.6,130.7,139.3z"/>
<path fill="#FCCF66" d="M161.6,156.8c-22.2,7-47.7,3.4-69.2-10.5c6.8,14.4,17.9,26,32.6,32.6c30.3,13.6,66.5,1.4,89-27.4
	C196.9,159.3,178.4,161.1,161.6,156.8z"/>
<path fill="#E96E67" d="M247.6,23.2C226.2,1.6,192.9-2.2,164,11c4.2,2.3,8.2,5,12,8c6.3,0.8,12.5,2.5,18.3,5.1
	c36.8,16.5,51.1,64.5,31.9,107.2c-3.2,7.2-7.4,14.1-12.2,20.3c9.9-4.5,19-10.8,26.7-18.4C273,101.1,276.1,51.8,247.6,23.2z"/>
<path fill="#FFDEA6" d="M194.4,24c-5.8-2.6-12-4.3-18.3-5.1c3.1,2.4,6,5,8.7,7.7c32.6,33,34.9,83.7,5,113.2
	c-7.9,7.8-17.6,13.6-28.2,16.9c0.9,0.2,1.9,0.4,2.8,0.6l0.5,0.1c0.9,0.2,1.8,0.4,2.7,0.5l0.6,0.1c0.9,0.1,1.8,0.3,2.7,0.4l0.5,0.1
	c1,0.1,1.9,0.2,2.9,0.3h0.3c13.5,0.8,27.1-1.7,39.4-7.3c4.9-6.3,9-13.1,12.2-20.3C245.4,88.5,231.1,40.5,194.4,24z"/>
<path fill="#FDF7E0" d="M137.6,29.3c2.5-2.5,5.1-4.8,7.9-7c-21.7,7.3-41.3,24.8-52.3,49.4c-11.5,25.6-10.9,53.2-0.7,74.6
	c21.5,13.8,47.1,17.5,69.2,10.5c-11.7-2.9-22.5-9-31-17.6C102.2,110.6,105.3,61.4,137.6,29.3z"/>
<path fill="#F7E9DE" d="M176.1,19c-3.8-3-7.8-5.7-12-8l0,0c-6.6,3-12.9,6.9-18.6,11.4C155.3,19,165.7,17.8,176.1,19z"/>
<path fill="#612F4C" d="M251.1,101.5l-6.8-10.6c0,0,11-10.5,11-23.9v-2.2H216v45.9h12.5V96h7.1l9,14.7h0.5l0,0H260l4.8-8l16.1,8
	h12.4v-46h-17.5L251.1,101.5z M229.3,85.9h-0.9V74.7h12.4C240.8,79.3,234.2,85.9,229.3,85.9z M280.7,77.6v20.6l-9.7-5.1l9.6-15.5
	H280.7z M299.8,64.8h2.6v2.7h-2.6V64.8z M304.6,55.1h2.7v2.4h-2.7V55.1z M313.4,58.9c-2.5,0-4.5,1.9-4.5,4.4s1.9,4.5,4.4,4.5
	s4.5-1.9,4.5-4.4c0,0,0,0,0-0.1c0.2-2.3-1.6-4.3-3.9-4.5C313.7,58.8,313.6,58.8,313.4,58.9L313.4,58.9z M313.4,65.7
	c-1.3,0.2-2.5-0.7-2.7-1.9c-0.2-1.3,0.7-2.5,1.9-2.7c1.3-0.2,2.5,0.7,2.7,1.9c0,0.1,0,0.3,0,0.4c0.1,1.1-0.7,2.1-1.8,2.3
	C313.5,65.6,313.4,65.6,313.4,65.7L313.4,65.7z M211,110.7h-12.5V64.8H211V110.7z M80.7,79.5v31.2h0.1l0,0h14.9l4.8-8l16.1,8H129
	l0,0l0,0V90.8l16.4,19.9h0.2l0,0h15l0,0l0,0l4.8-8l16.1,8h12.4v-46h-17.5l-23.9,35.8L142,87.6l17.1-22.9h-14.6l-15.4,20.5V64.8l0,0
	l0,0h-8.8h-3.7h-5.1L93,92.4V64.7H75.5L55.9,92.9V56H38.4L0.1,110.6h15.5l27.7-39.9h0.1v39.9H59l21.5-31.2L80.7,79.5z M181.3,77.6
	h0.1v20.6l-9.7-5.1L181.3,77.6z M116.5,77.6L116.5,77.6l0.1,20.6l-9.7-5.1L116.5,77.6z M304.6,59.1h2.5v8.4h-2.6L304.6,59.1z"/>
</svg>
